<?xml version="1.0" encoding="UTF-8"?>
<svg version="1.1" xmlns="http://www.w3.org/2000/svg" width="1032" height="615">
<path d="M0 0 C0.95349889 -0.00630794 1.90699779 -0.01261588 2.88939059 -0.01911497 C4.47164638 -0.02190797 4.47164638 -0.02190797 6.08586693 -0.02475739 C7.2008246 -0.03055077 8.31578227 -0.03634416 9.46452653 -0.0423131 C13.22619099 -0.0604493 16.98784035 -0.07126666 20.7495327 -0.08200836 C22.75217774 -0.09033396 24.75482279 -0.09866554 26.75746568 -0.10749274 C36.28783386 -0.14942777 45.81822724 -0.17661086 55.34865379 -0.20114899 C56.10073488 -0.20312389 56.85281597 -0.20509879 57.62768739 -0.20713353 C72.55922638 -0.24629714 87.49077368 -0.28000562 102.42234802 -0.30221558 C105.70621439 -0.30718496 108.99008064 -0.31222927 112.27394676 -0.31735992 C113.4982452 -0.31926593 113.4982452 -0.31926593 114.74727695 -0.32121044 C127.96591652 -0.34256549 141.1843073 -0.39155436 154.40282173 -0.45160407 C167.97211003 -0.51273916 181.54127002 -0.54740557 195.11069429 -0.55668879 C202.73021506 -0.56259917 210.34931461 -0.58034621 217.9686985 -0.62807465 C224.45879832 -0.6686914 230.9484082 -0.6855476 237.43862946 -0.67142183 C240.74937884 -0.66495755 244.05886689 -0.67360003 247.36950111 -0.70529556 C250.96266587 -0.73788073 254.55322315 -0.72727915 258.1464138 -0.70590973 C259.18786667 -0.7256175 260.22931953 -0.74532527 261.30233157 -0.76563025 C267.84714574 -0.66734419 271.18277127 0.66557634 275.81550741 5.32329082 C276.37043009 5.92366319 276.92535277 6.52403555 277.49709129 7.14260101 C278.34669646 7.94975681 279.19630163 8.75691261 280.07165241 9.58852768 C280.81516232 10.33036175 281.55867224 11.07219582 282.32471275 11.8365097 C283.19250862 12.70004059 284.06030449 13.56357147 284.9543972 14.45326996 C286.33956032 15.83911285 286.33956032 15.83911285 287.75270653 17.25295258 C288.75698073 18.25422812 289.76145738 19.25530063 290.766119 20.25618744 C293.47051932 22.95182479 296.17173601 25.65062987 298.87207866 28.35033131 C300.56073911 30.03827794 302.25011084 31.72550932 303.93973541 33.41249084 C309.8372697 39.30080395 315.73224623 45.19166355 321.62477684 51.08498383 C327.11553414 56.57634411 332.61187013 62.06207694 338.11079448 67.54525781 C342.83976058 72.2611668 347.56488214 76.98090431 352.28700405 81.70366645 C355.10432064 84.52123815 357.92317303 87.33723044 360.7458992 90.14938354 C363.3941534 92.78798527 366.03760224 95.43130671 368.67738342 98.0783844 C369.64759174 99.04964145 370.61951847 100.01918537 371.59325981 100.98690033 C372.91956502 102.30552512 374.23915117 103.63089795 375.55835533 104.95662689 C376.29922606 105.69695286 377.0400968 106.43727882 377.80341816 107.20003891 C380.90064798 110.75241343 380.62524874 114.11318547 380.63410568 118.63540459 C380.63675751 119.300899 380.63940934 119.9663934 380.64214152 120.65205431 C380.64984432 122.89788987 380.65039406 125.14367084 380.65099144 127.38951874 C380.65500539 129.00959206 380.6594435 130.62966437 380.664271 132.24973547 C380.67624939 136.71412215 380.68188785 141.17849801 380.68645215 145.64289761 C380.69240326 150.45280862 380.70401414 155.26270667 380.71474266 160.07260895 C380.73927502 171.69327883 380.75389353 183.31395301 380.76680273 194.93464082 C380.77051357 198.21507939 380.77448687 201.49551753 380.77855539 204.77595568 C380.80378701 225.13478137 380.82584616 245.49360772 380.83828354 265.8524456 C380.84121336 270.56895576 380.84417501 275.2854659 380.84718895 280.00197601 C380.847935 281.17427956 380.84868105 282.34658311 380.84944971 283.55441101 C380.86211244 302.55924266 380.89534769 321.56398094 380.93699078 340.5687689 C380.97936662 360.06725263 381.00297339 379.56568849 381.0082041 399.06421816 C381.01162279 410.01742546 381.02343205 420.97048676 381.05630684 431.92364883 C381.08424853 441.24859888 381.09533252 450.573373 381.08411138 459.89836167 C381.07890995 464.65851889 381.08190745 469.41830736 381.10657692 474.17841148 C381.12895931 478.53342387 381.12841606 482.88780026 381.10937305 487.24282296 C381.10655751 488.82088238 381.11225722 490.39898393 381.12718599 491.97697525 C381.14620919 494.11813576 381.13456414 496.25700879 381.11512375 498.39811516 C381.11648028 499.58843106 381.11783681 500.77874696 381.11923444 502.00513303 C380.31058861 506.08313407 378.64931 507.52042235 375.49709129 510.14260101 C371.94615054 512.50989485 370.45555581 512.39547713 366.2441349 512.40266323 C364.92575512 512.40972882 363.60737534 512.41679441 362.24904466 512.42407411 C360.77705941 512.42182252 359.30507446 512.41937599 357.83308983 512.41675568 C356.27631235 512.42120559 354.71953713 512.42651881 353.16276526 512.4326244 C348.87324535 512.44684472 344.58379775 512.44846693 340.29425764 512.44802749 C335.67244108 512.44967217 331.05065462 512.46273216 326.42885399 512.47422028 C316.3173143 512.49709703 306.20579557 512.50499382 296.09423351 512.51004672 C289.78289603 512.51330076 283.47156466 512.51982147 277.16023064 512.52704811 C259.69286991 512.54661784 242.22551487 512.56301976 224.75814247 512.56592464 C223.63975172 512.56611221 222.52136096 512.56629978 221.36907957 512.56649304 C219.10172828 512.56685929 216.83437699 512.56722299 214.56702569 512.56758415 C212.87870211 512.56785837 212.87870211 512.56785837 211.15627098 512.56813812 C210.02935127 512.56831867 208.90243157 512.56849922 207.74136278 512.56868524 C189.4782923 512.57222741 171.2153397 512.5992508 152.95231012 512.63663601 C134.21091934 512.67469403 115.46958709 512.69408194 96.72815681 512.69438416 C86.20190055 512.69496931 75.67578488 512.70349829 65.14956474 512.73238182 C56.18661409 512.75686226 47.22385528 512.76420122 38.26088026 512.74913429 C33.68679995 512.74195159 29.11309871 512.74288116 24.53906059 512.76554489 C20.35169741 512.7860941 16.16500571 512.78357294 11.97765014 512.76267005 C10.46281545 512.75916731 8.94793271 512.76411836 7.43316105 512.77837449 C-5.29033707 512.8904029 -5.29033707 512.8904029 -9.88865471 509.72918034 C-13.02819286 506.62287756 -13.46606692 506.1243154 -13.63055921 501.74112827 C-13.63697115 500.23299689 -13.63774167 498.72483599 -13.63433647 497.21669483 C-13.63638911 496.38411609 -13.63844174 495.55153735 -13.64055657 494.69372895 C-13.64625994 491.87347457 -13.64476524 489.05326851 -13.6433506 486.23300934 C-13.64593233 484.20274492 -13.64894495 482.17248101 -13.652354 480.14221781 C-13.66044992 474.53927239 -13.66221501 468.93633975 -13.66295147 463.33338916 C-13.66479755 457.29982906 -13.67234265 451.26627567 -13.67908669 445.23271942 C-13.69339897 431.33927541 -13.69919912 417.44583451 -13.70377863 403.55238498 C-13.70611308 396.68909402 -13.70971558 389.8258039 -13.71347401 382.9625136 C-13.7263113 359.47613316 -13.73703006 335.9897532 -13.74047661 312.50336933 C-13.74069824 311.02841865 -13.74092003 309.55346798 -13.74114196 308.0785173 C-13.7413626 306.59996685 -13.74158308 305.1214164 -13.74180341 303.64286596 C-13.74224597 300.67655043 -13.74269308 297.7102349 -13.74314308 294.74391937 C-13.74325247 294.00844301 -13.74336186 293.27296665 -13.74347457 292.51520312 C-13.74710539 268.66609162 -13.76302546 244.81701051 -13.78633345 220.96791064 C-13.81092152 195.76298099 -13.82464899 170.5580687 -13.82584453 145.3531267 C-13.82601598 142.58694915 -13.82623141 139.82077159 -13.82647896 137.05459404 C-13.82653473 136.37346581 -13.8265905 135.69233759 -13.82664795 134.99056912 C-13.82779934 124.02187632 -13.83882886 113.05321467 -13.85336601 102.0845324 C-13.8677223 91.06180647 -13.87072013 80.03911212 -13.86292604 69.01637719 C-13.85901044 63.04294586 -13.85999341 57.06961947 -13.87398338 51.09620094 C-13.88666788 45.6303204 -13.88557287 40.16462423 -13.87339267 34.69874414 C-13.87142618 32.71887916 -13.87455773 30.73900135 -13.88323703 28.75915442 C-13.89427428 26.07178201 -13.88688043 23.38506669 -13.8748455 20.6977129 C-13.8824407 19.92573139 -13.89003589 19.15374987 -13.89786124 18.35837498 C-13.8385075 12.23570774 -12.55804854 7.50912567 -8.44040871 2.76760101 C-5.48327339 0.287423 -3.78202267 0.01561172 0 0 Z " fill="#E8E8DF" transform="translate(337.50290870666504,44.857398986816406)"/>
<path d="M0 0 C130.02 0 260.04 0 394 0 C394 49.17 394 98.34 394 149 C386.7518904 156.2481096 386.7518904 156.2481096 379.74704361 156.26006222 C378.42866383 156.26712781 377.11028405 156.2741934 375.75195336 156.2814731 C374.27996812 156.27922151 372.80798317 156.27677498 371.33599854 156.27415466 C369.77922105 156.27860457 368.22244584 156.2839178 366.66567397 156.29002339 C362.37615406 156.30424371 358.08670646 156.30586592 353.79716635 156.30542648 C349.17534979 156.30707116 344.55356333 156.32013115 339.9317627 156.33161926 C329.82022301 156.35449602 319.70870427 156.36239281 309.59714222 156.36744571 C303.28580474 156.37069974 296.97447337 156.37722046 290.66313934 156.3844471 C273.19577861 156.40401683 255.72842358 156.42041875 238.26105118 156.42332363 C237.14266042 156.4235112 236.02426967 156.42369877 234.87198828 156.42389202 C232.60463699 156.42425828 230.33728569 156.42462198 228.0699344 156.42498314 C226.38161082 156.42525735 226.38161082 156.42525735 224.65917969 156.42553711 C223.53225998 156.42571766 222.40534028 156.42589821 221.24427149 156.42608423 C202.98120101 156.4296264 184.71824841 156.45664979 166.45521882 156.494035 C147.71382805 156.53209302 128.9724958 156.55148093 110.23106551 156.55178314 C99.70480926 156.55236829 89.17869358 156.56089727 78.65247345 156.58978081 C69.6895228 156.61426125 60.72676399 156.62160021 51.76378897 156.60653328 C47.18970866 156.59935058 42.61600742 156.60028015 38.0419693 156.62294388 C33.85460612 156.64349308 29.66791442 156.64097192 25.48055884 156.62006903 C23.96572415 156.6165663 22.45084141 156.62151735 20.93606976 156.63577347 C8.21257164 156.74780189 8.21257164 156.74780189 3.614254 153.58657932 C1 151 1 151 0 149 C0 99.83 0 50.66 0 0 Z " fill="#CC4C4D" transform="translate(324,401)"/>
<path d="M0 0 C5.28665585 4.47965854 10.43973112 9.82247526 11.21362305 16.97412109 C11.3460232 19.42497748 11.37910942 21.85803235 11.375 24.3125 C11.37483887 25.22314209 11.37467773 26.13378418 11.37451172 27.07202148 C11.22568628 36.31564755 9.7588857 45.24597727 8.0703125 54.31640625 C7.90200928 55.24815674 7.73370605 56.17990723 7.56030273 57.13989258 C7.17492449 59.10708481 6.73068401 61.06336212 6.23852539 63.0065918 C4.36007065 71.21733132 5.8154008 75.62795185 10.1875 82.6875 C11.01701172 84.10796631 11.01701172 84.10796631 11.86328125 85.55712891 C13.53825001 88.3960671 15.26029205 91.20037107 17 94 C17.48291504 94.79196777 17.96583008 95.58393555 18.46337891 96.39990234 C24.58610586 106.40639973 31.36397632 115.88935697 38.58300781 125.13085938 C39.96238199 126.95037844 41.24710615 128.81038938 42.5234375 130.703125 C44.75040074 133.87657 46.89964338 136.61090166 50 139 C55.70005213 139.91514598 60.591273 138.802909 66 137 C70.16171709 136.71143412 74.32941324 136.72210111 78.5 136.6875 C79.634375 136.65849609 80.76875 136.62949219 81.9375 136.59960938 C89.84193675 136.54068869 98.49432315 137.08631448 104.74853516 142.51879883 C108.24595605 146.59995031 109.29621547 149.4928553 109.21875 154.84765625 C108.51951547 161.72762462 104.17614692 168.26572501 99.0625 172.75 C92.33066145 177.69584057 85.24270051 177.98848801 77.11328125 177.33300781 C67.44846692 175.81004031 56.97297998 168.66974366 50.578125 161.37890625 C48.4995233 159.12301206 46.69035056 158.03060668 43.62109375 157.89453125 C40.00413008 158.33280514 36.52637826 159.10974159 33 160 C32.15002441 160.21205078 31.30004883 160.42410156 30.42431641 160.64257812 C17.70711705 163.88538665 5.2237918 167.81179333 -7.1875 172.0625 C-8.35539063 172.46146484 -9.52328125 172.86042969 -10.7265625 173.27148438 C-13.01032321 174.06859722 -15.28679875 174.88691527 -17.55517578 175.72680664 C-19.93279869 176.60556663 -22.32891507 177.43530432 -24.73779297 178.22436523 C-32.78540293 181.13200862 -36.65299285 183.87994282 -40.34472656 191.65600586 C-41.04033691 193.28034546 -41.04033691 193.28034546 -41.75 194.9375 C-42.81656064 197.19051988 -43.88948 199.44054062 -44.96875 201.6875 C-45.73445313 203.31558594 -45.73445313 203.31558594 -46.515625 204.9765625 C-52.79594835 217.76858953 -63.37884753 234.35519807 -77 240 C-82.18637141 240.67375822 -86.63077706 240.65925549 -91.375 238.375 C-97.26530746 233.0456742 -101.37454394 227.73559585 -102.4375 219.6875 C-100.97351749 207.34821884 -93.14859161 198.79350355 -83.73046875 191.33203125 C-76.56146734 185.92785043 -68.85033862 181.41026068 -60.984375 177.10546875 C-60.35595703 176.75838867 -59.72753906 176.41130859 -59.08007812 176.05371094 C-57 175 -57 175 -54.46679688 174.00097656 C-49.45002348 171.91220156 -46.58701679 170.19451299 -44.1875 165.2109375 C-43.42205236 163.27961291 -42.69478872 161.33285428 -42 159.375 C-41.59467041 158.31958008 -41.18934082 157.26416016 -40.77172852 156.17675781 C-39.91664734 153.93408389 -39.07786011 151.68513841 -38.25439453 149.43066406 C-37.02635383 146.07207553 -35.7524376 142.7345887 -34.46484375 139.3984375 C-28.75414955 124.46633132 -23.70867205 109.3451994 -18.97216797 94.07861328 C-18.09369279 91.29670168 -17.17040396 88.53624654 -16.22265625 85.77734375 C-13.56306933 77.86879206 -12.17852936 72.71596302 -16 65 C-17.04022346 62.31312495 -17.98849716 59.59523448 -18.9375 56.875 C-19.196521 56.13838135 -19.45554199 55.4017627 -19.72241211 54.64282227 C-24.74276009 40.24990337 -30.34928118 23.78347357 -23.33203125 9.0546875 C-20.42772063 4.5747245 -16.85121258 1.92560629 -12.125 -0.4375 C-7.7318691 -1.22826356 -4.23073043 -1.66454968 0 0 Z " fill="#CC4D4E" transform="translate(526,109)"/>
<path d="M0 0 C48.21161826 0 48.21161826 0 63.25 13.625 C73.75872848 24.66662547 74.45935153 36.84478513 74.27734375 51.1953125 C73.9066297 62.67822619 70.02164672 73.50361765 62.1171875 82.03125 C44.99714446 97.87568199 22.45973416 93 0 93 C0 62.31 0 31.62 0 0 Z " fill="#FDFAFA" transform="translate(485,437)"/>
<path d="M0 0 C4.07063901 3.48911915 7.91598807 6.79080969 11.6761322 10.54241943 C12.53558441 11.39760666 13.39503662 12.25279388 14.28053284 13.13389587 C15.1997905 14.05360672 16.11904816 14.97331757 17.06616211 15.92089844 C18.06205861 16.91379753 19.05815805 17.90649312 20.05444336 18.89900208 C22.74024781 21.57603055 25.42285587 24.25623944 28.1045959 26.93733883 C29.78067958 28.61270941 31.45747421 30.28736502 33.13452339 31.9617691 C38.98551555 37.80353557 44.83394513 43.64785327 50.67993164 49.49462891 C56.13149346 54.94679374 61.58863357 60.39333117 67.04836267 65.83731627 C71.73992159 70.51582688 76.42764489 75.19815698 81.11236387 79.88351655 C83.90898358 82.68039164 86.70714654 85.47567959 89.50916862 88.26714325 C92.13770054 90.88603751 94.76144674 93.50963115 97.38150787 96.13699913 C98.80704639 97.564091 100.23755185 98.98621584 101.66816711 100.40821838 C102.50788055 101.25212631 103.34759399 102.09603424 104.2127533 102.96551514 C104.9484703 103.70068737 105.6841873 104.4358596 106.44219875 105.19330978 C108 107 108 107 108 109 C72.36 109 36.72 109 0 109 C0 73.03 0 37.06 0 0 Z " fill="#D9D7CA" transform="translate(608,46)"/>
<path d="M0 0 C39.83221477 0 39.83221477 0 50 9 C52.25919279 11.52155066 54.22187946 14.12002772 56 17 C56.37511719 17.58265625 56.75023437 18.1653125 57.13671875 18.765625 C59.75187978 25.53427709 58.87516902 35.72039494 56.5625 42.5 C53.16012973 49.680091 46.33836311 55.16472334 39 58 C34.1126511 59.33544258 29.20979609 59.11081186 24.1875 59.0625 C21.155625 59.041875 18.12375 59.02125 15 59 C15 70.22 15 81.44 15 93 C10.05 93 5.1 93 0 93 C0 62.31 0 31.62 0 0 Z " fill="#FEFCFC" transform="translate(409,437)"/>
<path d="M0 0 C26.91115312 0 26.91115312 0 37 9 C38.51171875 10.89453125 38.51171875 10.89453125 39.6875 12.8125 C40.08324219 13.43769531 40.47898437 14.06289063 40.88671875 14.70703125 C46.46576286 26.19790455 45.11185128 39.89659367 41.12402344 51.6550293 C38.42383189 58.99884461 35.58129863 63.77085928 28.35546875 67.17578125 C17.91870017 70.82778485 12.10375919 70 0 70 C0 46.9 0 23.8 0 0 Z " fill="#CC4D4E" transform="translate(500,449)"/>
<path d="M0 0 C19.14 0 38.28 0 58 0 C58 3.96 58 7.92 58 12 C43.81 12 29.62 12 15 12 C15 21.57 15 31.14 15 41 C27.87 41 40.74 41 54 41 C54 44.3 54 47.6 54 51 C41.46 51 28.92 51 16 51 C16 64.86 16 78.72 16 93 C10.72 93 5.44 93 0 93 C0 62.31 0 31.62 0 0 Z " fill="#FDF8F8" transform="translate(581,437)"/>
<path d="M0 0 C4.12133437 1.37377812 4.47811566 3.26289955 6.5 7.0625 C13.15283544 19.1787055 21.26265649 30.29200247 29.80859375 41.1328125 C32.01495049 44.01956089 34.01804715 46.95709289 36 50 C34.10416667 50.54166667 32.20833333 51.08333333 30.3125 51.625 C29.69455566 51.80248779 29.07661133 51.97997559 28.43994141 52.1628418 C24.66416143 53.24577115 20.88417936 54.31068118 17.09765625 55.35546875 C5.53995482 58.56788453 -5.77647736 62.21953264 -17.04321289 66.33911133 C-19.01107262 67.00373969 -20.97891407 67.52443377 -23 68 C-20.79075563 60.02066253 -17.89078049 52.39170074 -14.875 44.6875 C-9.18228184 30.00693752 -4.46677232 15.09397509 0 0 Z " fill="#E8E6DD" transform="translate(523,203)"/>
<path d="M0 0 C19.78625954 0 19.78625954 0 24.64453125 4.53515625 C29.46216837 10.83514325 29.54109532 15.14919888 29 23 C28.11290961 27.3446474 26.70649327 30.32796982 23.4375 33.4375 C20.15669378 35.54058091 18.5025778 36.12335052 14.6484375 36.09765625 C13.49867432 36.09390991 13.49867432 36.09390991 12.32568359 36.09008789 C10.86509521 36.07643188 10.86509521 36.07643188 9.375 36.0625 C6.28125 36.041875 3.1875 36.02125 0 36 C0 24.12 0 12.24 0 0 Z " fill="#CC4C4D" transform="translate(424,449)"/>
<path d="M0 0 C0.66 0.33 1.32 0.66 2 1 C-10.99786424 23.76930829 -10.99786424 23.76930829 -20 30 C-23.875 28.125 -23.875 28.125 -25 27 C-25.60950701 23.8762766 -25.52629428 21.8233959 -23.7890625 19.10546875 C-17.56231157 11.69475814 -8.91593914 3.99906094 0 0 Z " fill="#E7E2DA" transform="translate(465,304)"/>
<path d="M0 0 C3.28134753 3.06964769 4.83885252 4.96396355 5.203125 9.56640625 C5.31298111 16.58804278 4.4476296 22.41471083 2 29 C-2.51475387 24.95228963 -4.77536307 21.28380884 -5.375 15.1875 C-5.16761191 9.80577897 -3.86981255 3.86981255 0 0 Z " fill="#E7E1D8" transform="translate(518,125)"/>
<path d="M0 0 C1.28261719 -0.01417969 2.56523438 -0.02835937 3.88671875 -0.04296875 C7.03117654 0.16857402 8.70185595 0.51536596 11.3125 2.1875 C10.41618306 5.20238424 9.63337126 6.90552222 7.25 9 C3.06816846 10.69052765 -0.26208603 11.31119446 -4.6875 10.1875 C-8.36741222 7.88114833 -11.59827014 5.23803387 -14.6875 2.1875 C-14.6875 1.8575 -14.6875 1.5275 -14.6875 1.1875 C-9.7513629 0.38928896 -5.01518173 0.02535481 0 0 Z " fill="#E7DED6" transform="translate(607.6875,260.8125)"/>
</svg>
