<?xml version="1.0" encoding="UTF-8"?>
<svg version="1.1" xmlns="http://www.w3.org/2000/svg" width="1800" height="600">
<path d="M0 0 C0 121.11 0 242.22 0 367 C-17.22227481 367 -17.22227481 367 -23.55859375 365.35546875 C-24.27628433 365.18501541 -24.99397491 365.01456207 -25.7334137 364.83894348 C-27.97229061 364.30422113 -30.20475533 363.7472131 -32.4375 363.1875 C-35.39298795 362.46621441 -38.35063723 361.75405412 -41.30859375 361.04296875 C-42.03440643 360.86692108 -42.76021912 360.69087341 -43.50802612 360.50949097 C-49.05962839 359.17891475 -54.63344561 358.08107037 -60.24998474 357.0644989 C-66.70988516 355.89107271 -73.10041811 354.46200602 -79.5 353 C-86.64967766 351.38720224 -93.78552005 349.79490666 -101 348.5 C-109.42082945 346.98856907 -117.74471116 345.07110423 -126.08984375 343.19140625 C-132.04610255 341.85672619 -137.99212568 340.57833642 -144 339.5 C-152.41642563 337.9893595 -160.73626242 336.07403585 -169.07666016 334.19360352 C-175.1614943 332.8290869 -181.23664805 331.53587586 -187.375 330.4375 C-196.98568175 328.62565016 -206.48597494 326.26524406 -216 324 C-216 230.61 -216 137.22 -216 41 C-207.13540494 37.45416198 -197.77762898 36.08100491 -188.375 34.6875 C-178.89571704 33.27856386 -169.56902207 31.26223059 -160.22216797 29.15698242 C-154.53619636 27.89420485 -148.89982453 26.80179768 -143.125 26.03125 C-136.10964796 25.08243839 -129.25086532 23.60853761 -122.35632324 22.0295105 C-112.31848258 19.73587919 -102.31067138 17.57588822 -92.10986328 16.13525391 C-83.72700657 14.90527204 -75.47977964 13.01687568 -67.21777344 11.15600586 C-61.54313231 9.89574563 -55.92028693 8.80654729 -50.15625 8.04296875 C-45.03837465 7.35215355 -40.04844934 6.42411034 -35.01953125 5.2734375 C-34.34633347 5.11966141 -33.67313568 4.96588531 -32.97953796 4.80744934 C-30.22846839 4.17403776 -27.47926072 3.53341339 -24.73266602 2.88085938 C-22.68476673 2.39690248 -20.6338084 1.92814002 -18.58203125 1.4609375 C-16.79116089 1.04013916 -16.79116089 1.04013916 -14.96411133 0.61083984 C-11 0 -11 0 0 0 Z M-140.5 135.3125 C-148.02179928 144.30407615 -152.82082723 156.42596575 -154 168 C-154.17144531 169.051875 -154.34289062 170.10375 -154.51953125 171.1875 C-157.14472324 192.01829174 -155.036312 212.42884337 -143 230 C-135.91740757 238.96004154 -126.57247836 245.58918715 -115 247 C-103.72887036 247.97551298 -93.05117496 246.88243818 -83.5234375 240.28515625 C-81.55893958 238.60392863 -79.77713706 236.87652951 -78 235 C-76.78570312 233.87078125 -76.78570312 233.87078125 -75.546875 232.71875 C-72.70043088 229.68021456 -70.80108161 226.62828926 -68.8125 223 C-68.47025391 222.39671875 -68.12800781 221.7934375 -67.77539062 221.171875 C-56.93804716 201.81196047 -57.66426105 175.42553858 -63.21630859 154.46142578 C-67.24124709 141.81985882 -75.10890628 130.95941928 -86.8125 124.625 C-105.88644268 115.73992291 -125.97644339 120.62464976 -140.5 135.3125 Z " fill="#0072C6" transform="translate(216,119)"/>
<path d="M0 0 C0.69124969 -0.00572021 1.38249939 -0.01144043 2.09469604 -0.01733398 C15.24550173 -0.09387276 28.88814342 0.19868227 41.25 5.125 C41.96067627 5.39401123 42.67135254 5.66302246 43.40356445 5.94018555 C44.78928281 6.46724241 46.17238967 7.00123884 47.55224609 7.54345703 C49.08025543 8.13574996 50.62635544 8.68108061 52.17578125 9.21484375 C79.19586356 18.81117413 99.47621901 43.76305978 112.375 68.25 C114.77722976 73.44830334 116.62049459 78.80118946 118.375 84.25 C118.61887451 84.91459229 118.86274902 85.57918457 119.11401367 86.26391602 C133.03261682 124.939343 127.55034534 176.75342086 110.375 213.25 C105.00588301 224.16026977 98.50347533 233.25283265 90.375 242.25 C89.18686963 243.68697903 87.99927821 245.12440405 86.8125 246.5625 C66.70090674 269.3620389 35.64128145 278.93905528 6.375 281.25 C-15.98436377 282.44716146 -38.08199582 280.49990666 -58.625 271.25 C-59.60847412 270.8161499 -59.60847412 270.8161499 -60.61181641 270.37353516 C-77.42490998 262.84701848 -92.15447392 250.64859949 -103.625 236.25 C-104.33011719 235.3940625 -105.03523438 234.538125 -105.76171875 233.65625 C-125.76830834 208.38476841 -131.8133405 177.04546096 -131.81030273 145.59545898 C-131.81248166 143.08364705 -131.8306909 140.57228127 -131.84960938 138.06054688 C-131.90327082 123.25116678 -131.2229674 108.52958942 -126.75 94.3125 C-126.48098877 93.42336914 -126.21197754 92.53423828 -125.93481445 91.61816406 C-125.18203034 89.15631384 -124.40659607 86.70281809 -123.625 84.25 C-123.14740234 82.67798828 -123.14740234 82.67798828 -122.66015625 81.07421875 C-114.51368109 56.3344624 -96.63147279 33.10813016 -74.625 19.25 C-73.81385742 18.72164551 -73.81385742 18.72164551 -72.98632812 18.18261719 C-50.26788801 3.55619672 -26.35978097 0.1621528 0 0 Z M-10.0546875 29.4921875 C-32.74767377 31.69408122 -51.58250922 40.02468882 -67.625 56.25 C-68.82769531 57.43722656 -68.82769531 57.43722656 -70.0546875 58.6484375 C-86.30972041 75.57841987 -94.21013261 98.28660504 -96.625 121.25 C-96.75390625 122.33539063 -96.8828125 123.42078125 -97.015625 124.5390625 C-97.31336385 127.44593387 -97.49807903 130.33081776 -97.625 133.25 C-97.67785156 134.36246094 -97.73070312 135.47492188 -97.78515625 136.62109375 C-98.57559195 169.64755928 -90.54441822 202.16974082 -67.37109375 226.64453125 C-58.25373799 235.2949954 -48.2807834 242.24620539 -36.375 246.375 C-35.34439453 246.75205078 -35.34439453 246.75205078 -34.29296875 247.13671875 C-9.53726487 255.84452619 19.03123113 252.42640647 42.375 241.25 C62.66482439 230.16791347 76.643696 211.82998285 84.375 190.25 C88.04152479 177.60215229 90.49372028 164.44656791 90.578125 151.26171875 C90.58509399 150.52502457 90.59206299 149.78833038 90.59924316 149.02931213 C90.61653755 146.66531594 90.62296274 144.30155682 90.625 141.9375 C90.62600708 141.13042603 90.62701416 140.32335205 90.62805176 139.49182129 C90.61852322 128.21620228 90.3338886 117.25138554 87.81933594 106.20898438 C87.36912895 104.22411578 86.98330477 102.23342231 86.6015625 100.234375 C83.21522027 83.70426226 75.42617594 68.903876 64.375 56.25 C63.82714844 55.59128906 63.27929688 54.93257812 62.71484375 54.25390625 C54.95906924 45.66503064 43.35264754 38.65858463 32.375 35.25 C31.33214844 34.90453125 30.28929687 34.5590625 29.21484375 34.203125 C16.38854883 30.21207945 3.33947776 28.54635806 -10.0546875 29.4921875 Z " fill="#0071C5" transform="translate(616.625,162.75)"/>
<path d="M0 0 C10.56 0 21.12 0 32 0 C32.33 59.4 32.66 118.8 33 180 C40.25142122 172.7601903 40.25142122 172.7601903 47.0625 165.22265625 C49.45322875 162.48006621 51.91092359 159.80145311 54.375 157.125 C59.98871004 151.02243416 65.54653563 144.8712748 71.06640625 138.68359375 C79.23174134 129.55586189 87.62709198 120.64135097 96.0234375 111.7265625 C96.68778809 111.02031738 97.35213867 110.31407227 98.03662109 109.58642578 C99.30636234 108.2371086 100.57743248 106.88904017 101.85009766 105.54248047 C102.43581543 104.92002441 103.0215332 104.29756836 103.625 103.65625 C104.13289063 103.11806641 104.64078125 102.57988281 105.1640625 102.02539062 C106.9814051 100.11162363 106.9814051 100.11162363 108.20999146 98.23765564 C111.77381763 93.35452656 111.77381763 93.35452656 115.11468506 92.38858032 C117.62324918 92.19128971 120.04060096 92.21150278 122.5546875 92.31640625 C123.45623566 92.32631088 124.35778381 92.33621552 125.28665161 92.34642029 C128.1511271 92.3854408 131.01169386 92.47323222 133.875 92.5625 C135.82286111 92.59763014 137.77078261 92.62956617 139.71875 92.65820312 C144.48066043 92.73516167 149.23966885 92.85585314 154 93 C153.20530201 96.75987855 151.99267698 98.35232342 149.2109375 101.046875 C148.43363281 101.81 147.65632813 102.573125 146.85546875 103.359375 C146.03691406 104.14828125 145.21835938 104.9371875 144.375 105.75 C139.31755357 110.66810025 134.41436629 115.59353595 129.82275391 120.95019531 C125.47207424 125.84281605 120.69154602 130.34307556 116.02734375 134.93359375 C111.70427439 139.21502841 107.56244428 143.56133087 103.59960938 148.17773438 C100.74703345 151.42737215 97.63583665 154.4079023 94.5390625 157.421875 C91.79361327 160.12374567 89.1962772 162.89169979 86.68359375 165.8125 C82.69122493 170.42795529 78.39991741 174.71090001 74.0625 179 C73.28326172 179.77472656 72.50402344 180.54945313 71.70117188 181.34765625 C69.8030758 183.23410757 67.90266851 185.11816245 66 187 C71.19579942 193.2464508 76.84231064 198.90622511 82.63476562 204.59570312 C86.01671334 207.94118779 89.31293148 211.29778545 92.41015625 214.91015625 C96.67656141 219.86963109 101.34202022 224.41154231 106 229 C111.25007916 234.17171976 116.37071772 239.3503921 121.16796875 244.9453125 C124.91689207 249.1498619 128.9884459 253.04831984 133 257 C138.33426932 262.25465336 143.54573468 267.51712659 148.41845703 273.20458984 C151.23357912 276.40039223 154.32933365 279.30103385 157.43164062 282.21679688 C158.6762658 283.42344458 159.84507508 284.70723594 161 286 C161 286.99 161 287.98 161 289 C154.89881758 289.24849731 148.80061953 289.429242 142.69555664 289.54931641 C140.62244325 289.59939551 138.54967938 289.66748476 136.4777832 289.75439453 C119.28548463 290.45713335 119.28548463 290.45713335 113.7902832 286.95361328 C111.51818397 284.42313152 109.76430002 281.90037554 108 279 C106.96112307 277.81678774 105.89272511 276.65823529 104.78515625 275.5390625 C103.88667969 274.57742188 102.98820312 273.61578125 102.0625 272.625 C101.59521484 272.13128906 101.12792969 271.63757813 100.64648438 271.12890625 C98.75811659 269.09694665 97.13786338 267.28784662 95.93359375 264.7734375 C94.70617483 262.44185512 93.35146393 262.0934974 91 261 C89.46484375 259.4765625 89.46484375 259.4765625 87.9375 257.625 C84.91211108 254.04895143 81.80132295 250.56697706 78.625 247.125 C74.39949046 242.53691027 70.21729221 237.91334543 66.0703125 233.25390625 C64.6007432 231.65401665 63.09079958 230.09079958 61.5546875 228.5546875 C58.95580712 225.95580712 56.4733369 223.28090839 54 220.5625 C50.84027372 217.09423899 47.66929848 213.63798442 44.46484375 210.2109375 C43.87767578 209.58243896 43.29050781 208.95394043 42.68554688 208.30639648 C41.53879804 207.08036822 40.39041397 205.85586697 39.24023438 204.63305664 C36.9403236 202.1715439 34.87298238 199.80947357 33 197 C32.67 227.36 32.34 257.72 32 289 C21.44 289 10.88 289 0 289 C-1.61588454 287.38411546 -1.12542451 285.63250971 -1.12584114 283.39756012 C-1.12844889 282.39645124 -1.13105664 281.39534236 -1.13374341 280.36389685 C-1.13151268 279.25078965 -1.12928196 278.13768245 -1.12698364 276.99084473 C-1.12854363 275.81871634 -1.13010362 274.64658795 -1.13171089 273.43894053 C-1.13502412 270.17086627 -1.13381173 266.90282875 -1.13072467 263.63475537 C-1.1284724 260.11597316 -1.13194931 256.59719612 -1.13470459 253.07841492 C-1.13916315 246.17935036 -1.13818544 239.28029665 -1.13529195 232.38123167 C-1.13303825 226.77676197 -1.13272525 221.17229533 -1.13381577 215.56782532 C-1.133969 214.77172085 -1.13412223 213.97561639 -1.13428011 213.15538755 C-1.13459982 211.53837581 -1.13492403 209.92136408 -1.1352527 208.30435234 C-1.13810774 193.12338029 -1.13482009 177.94241426 -1.12945233 162.7614432 C-1.12498427 149.72100468 -1.1257602 136.68057507 -1.13037109 123.64013672 C-1.13571643 108.51538175 -1.13783305 93.39063207 -1.13475883 78.26587629 C-1.13444026 76.65464242 -1.13412589 75.04340855 -1.13381577 73.43217468 C-1.13366149 72.63931074 -1.13350721 71.84644679 -1.13334826 71.02955666 C-1.13248298 65.42850137 -1.13394622 59.82744942 -1.13629532 54.22639465 C-1.13909306 47.40534485 -1.1383556 40.58430657 -1.13301457 33.7632581 C-1.13037721 30.27966244 -1.12937308 26.79608601 -1.13266373 23.31249046 C-1.13537188 19.54469251 -1.13199822 15.77694966 -1.12698364 12.00915527 C-1.12921436 10.89604807 -1.13144509 9.78294087 -1.13374341 8.63610315 C-1.13113566 7.63499427 -1.12852791 6.63388539 -1.12584114 5.60243988 C-1.12567879 4.7315238 -1.12551644 3.86060771 -1.12534916 2.96330023 C-1 1 -1 1 0 0 Z " fill="#0072C6" transform="translate(1639,151)"/>
<path d="M0 0 C1.33611328 0.79470703 1.33611328 0.79470703 2.69921875 1.60546875 C25.37166435 15.96340119 34.98082878 38.19955934 40.7734375 63.359375 C44.83260733 83.71405268 43.52077667 104.55009568 38.1875 124.5 C37.83341064 125.84263916 37.83341064 125.84263916 37.47216797 127.21240234 C35.68449722 133.55457328 33.12437931 139.20963977 30 145 C29.54737793 145.84900879 29.09475586 146.69801758 28.62841797 147.57275391 C20.25344856 162.9556837 5.04362797 176.97858915 -11.125 183.6875 C-11.81464844 183.98205078 -12.50429687 184.27660156 -13.21484375 184.58007812 C-14.55328494 185.14949144 -15.89484993 185.71162983 -17.23974609 186.265625 C-18.62773107 186.84469002 -19.99751589 187.46737913 -21.359375 188.10546875 C-42.57087861 195.29102249 -73.920234 195.01996293 -94.27734375 185.37109375 C-95.62505859 184.69240234 -95.62505859 184.69240234 -97 184 C-97.99128906 183.55785156 -98.98257812 183.11570312 -100.00390625 182.66015625 C-121.41568026 172.78831663 -134.35662159 154.35951656 -144.1015625 133.66015625 C-145.47226468 129.60168589 -146.24547849 125.45004974 -147.0625 121.25 C-147.23587891 120.3940625 -147.40925781 119.538125 -147.58789062 118.65625 C-151.42411305 99.25466532 -150.46179493 80.39116129 -147 61 C-146.81824219 59.90429688 -146.63648438 58.80859375 -146.44921875 57.6796875 C-142.07854756 36.3317833 -127.91844129 15.93082731 -109.98828125 3.80078125 C-103.88172966 0.12088545 -97.46442561 -3.00109671 -91 -6 C-90.22785156 -6.36222656 -89.45570312 -6.72445312 -88.66015625 -7.09765625 C-60.69592577 -16.58332033 -25.47503432 -15.27315795 0 0 Z M-92 28 C-92.98742188 28.76183594 -93.97484375 29.52367187 -94.9921875 30.30859375 C-109.14458968 42.27231577 -114.88289455 61.52772379 -116.7578125 79.3203125 C-118.2075848 101.34749815 -115.61596932 123.88849686 -102 142 C-101.59136719 142.5775 -101.18273438 143.155 -100.76171875 143.75 C-93.35227421 153.52741135 -80.29129912 161.0551618 -68.3125 163.4375 C-51.96540174 165.39915179 -33.00145926 165.7124747 -19 156 C-18.32710937 155.55785156 -17.65421875 155.11570312 -16.9609375 154.66015625 C-3.93503344 145.58225786 4.26733891 130.96782424 7.54296875 115.51953125 C11.10608043 88.08052592 11.18656675 57.93723635 -6.28515625 35 C-16.42147221 23.17697536 -28.214592 17.05315996 -43.70898438 15.77685547 C-61.84296349 14.79238655 -77.33222005 16.38259907 -92 28 Z " fill="#0071C6" transform="translate(1558,252)"/>
<path d="M0 0 C1.24716797 0.64388672 1.24716797 0.64388672 2.51953125 1.30078125 C21.17584412 11.73068845 34.68186926 28.70476895 41.41796875 48.96484375 C42.43772951 52.62582396 43.25328588 56.27433116 44 60 C44.44279297 61.80791016 44.44279297 61.80791016 44.89453125 63.65234375 C49.61290027 84.23229662 48.43439394 106.71518302 43 127 C42.72285156 128.16917969 42.44570312 129.33835937 42.16015625 130.54296875 C38.51604917 144.33012043 30.52817099 156.54809251 21 167 C20.03126953 168.07314453 20.03126953 168.07314453 19.04296875 169.16796875 C0.92145547 188.24907336 -22.70265775 194.5326443 -48.28173828 195.3449707 C-64.66980509 195.55498656 -80.17587708 193.09453129 -95 186 C-95.83660156 185.60941406 -96.67320313 185.21882812 -97.53515625 184.81640625 C-116.52426999 175.13765163 -131.47509926 156.73611312 -139 137 C-146.37534428 113.13627476 -147.65295878 87.37379629 -142 63 C-141.73316406 61.79859375 -141.46632813 60.5971875 -141.19140625 59.359375 C-138.08416094 47.04087358 -132.39265388 34.63525554 -124 25 C-123.34515625 24.21496094 -122.6903125 23.42992187 -122.015625 22.62109375 C-110.58690197 9.34837463 -96.26498353 -1.03011953 -79 -5 C-77.9378125 -5.26425781 -76.875625 -5.52851563 -75.78125 -5.80078125 C-51.50897159 -11.67400458 -22.61165635 -11.80792468 0 0 Z M-86 30 C-87.05574219 30.76763672 -87.05574219 30.76763672 -88.1328125 31.55078125 C-102.36118434 42.79398488 -109.06965843 60.93277049 -111.53125 78.37890625 C-114.19202177 101.48428236 -111.59278377 126.12091976 -97.125 145.125 C-88.10151426 156.31751142 -74.80624583 165.05443866 -60.3125 166.7890625 C-40.16399803 168.0721039 -23.08771775 166.92149338 -6.75 153.75 C8.296523 139.60876572 13.4605537 119.87583294 14.31640625 99.84765625 C14.91430846 76.99525799 12.15496231 53.21520509 -3.53515625 35.40625 C-17.17747651 22.08823212 -31.83961477 18.46732078 -50.32885742 18.58105469 C-63.78710892 18.91979306 -75.12550845 21.63912043 -86 30 Z " fill="#0071C5" transform="translate(1336,249)"/>
<path d="M0 0 C0.07015113 17.85477582 0.12301804 35.70951576 0.15543652 53.56439972 C0.17089057 61.85515455 0.19195207 70.14582364 0.22631836 78.43652344 C0.25626555 85.66459763 0.27558562 92.89260971 0.28226548 100.12074423 C0.28616876 103.94628179 0.29531131 107.77164169 0.31719017 111.59712219 C0.33763953 115.20206038 0.34381687 118.80674867 0.33932304 122.41173935 C0.34053446 124.35685167 0.35663223 126.30193714 0.3732605 128.24697876 C0.3451979 136.22312875 -0.04249292 142.49768899 -5.375 148.8125 C-10.82135269 153.35112724 -15.03736719 155.1275546 -22.074646 155.12025452 C-23.09825729 155.12162918 -24.12186859 155.12300385 -25.17649841 155.12442017 C-26.29355667 155.12082489 -27.41061493 155.11722961 -28.56152344 155.11352539 C-30.33267265 155.11374443 -30.33267265 155.11374443 -32.13960266 155.1139679 C-35.37275108 155.11339088 -38.60585615 155.10837784 -41.83899593 155.10139394 C-45.21958668 155.09513987 -48.60017829 155.09455497 -51.98077393 155.09336853 C-58.38031421 155.09026128 -64.7798374 155.08205604 -71.17937016 155.07201904 C-79.18077474 155.05974226 -87.1821821 155.05427061 -95.18359375 155.04882812 C-109.45574248 155.03909029 -123.72785391 155.01905776 -138 155 C-138 122.33 -138 89.66 -138 56 C-132.53278763 57.36680309 -128.6172802 60.20670015 -124.0625 63.4375 C-122.75732422 64.34822266 -122.75732422 64.34822266 -121.42578125 65.27734375 C-120.00784265 66.28428566 -118.60225523 67.30994239 -117.23046875 68.37890625 C-114.76889711 70.24294599 -113.40346066 71.0173656 -110.27734375 70.8828125 C-106.14025327 69.76841149 -103.27689547 67.83188126 -99.8125 65.375 C-98.48245332 64.45864404 -97.15171929 63.54328495 -95.8203125 62.62890625 C-95.17094727 62.17918457 -94.52158203 61.72946289 -93.85253906 61.26611328 C-91.33867653 59.5480201 -88.76893475 57.92681603 -86.1875 56.3125 C-80.3318252 52.61463701 -74.66147451 48.67028747 -69.06640625 44.58984375 C-68.48761719 44.16832031 -67.90882813 43.74679687 -67.3125 43.3125 C-66.59513672 42.78076172 -66.59513672 42.78076172 -65.86328125 42.23828125 C-63.61535574 40.74437687 -61.26795372 39.44984024 -58.91967773 38.12182617 C-55.65160636 36.21202228 -52.51760419 34.10784427 -49.375 32 C-48.73304688 31.57460938 -48.09109375 31.14921875 -47.4296875 30.7109375 C-44.67956261 28.87376391 -42.0398719 27.03258879 -39.4765625 24.9375 C-37.05275336 23.04127077 -34.5481249 21.5526353 -31.86035156 20.0625 C-28.59666983 18.19851799 -25.49502175 16.09269752 -22.375 14 C-21.73304688 13.57460937 -21.09109375 13.14921875 -20.4296875 12.7109375 C-17.63799967 10.8459985 -14.95552951 8.96426711 -12.3359375 6.859375 C-10.05831863 5.04642085 -7.80391252 3.63836855 -5.25 2.25 C-4.47140625 1.82203125 -3.6928125 1.3940625 -2.890625 0.953125 C-1 0 -1 0 0 0 Z " fill="#0072C6" transform="translate(365,240)"/>
<path d="M0 0 C0.68429077 -0.00095673 1.36858154 -0.00191345 2.0736084 -0.00289917 C3.52286877 -0.0035808 4.97213218 -0.00172773 6.42138672 0.00244141 C8.64687928 0.00778998 10.87217001 0.0024959 13.09765625 -0.00390625 C14.50260461 -0.00324547 15.90755285 -0.0019643 17.3125 0 C18.59962891 0.00112793 19.88675781 0.00225586 21.21289062 0.00341797 C24.15625 0.1328125 24.15625 0.1328125 25.15625 1.1328125 C25.26003076 2.72066645 25.29421482 4.31311532 25.30101013 5.90434265 C25.30790863 6.93725433 25.31480713 7.97016602 25.32191467 9.03437805 C25.32452805 10.17763046 25.32714142 11.32088287 25.32983398 12.4987793 C25.336521 13.69563354 25.34320801 14.89248779 25.35009766 16.12561035 C25.36419208 18.73712746 25.37651247 21.34858775 25.38604546 23.96011925 C25.40149826 28.10169534 25.42545486 32.24319495 25.45094299 36.38471985 C25.52212023 48.16504054 25.5816044 59.94540742 25.63305664 71.72583008 C25.66152404 78.22631202 25.69700502 84.72672021 25.73971039 91.22712451 C25.76193176 94.66264097 25.78051485 98.09808999 25.79015923 101.53366661 C25.80242711 105.38412032 25.82662857 109.23433932 25.85327148 113.0847168 C25.85386063 114.20165421 25.85444977 115.31859161 25.85505676 116.46937561 C25.99977075 132.39616164 28.26408134 148.71278307 39.15625 161.1328125 C50.64371584 170.86940065 63.583094 171.72857045 78.15625 171.1328125 C91.28431066 169.74257551 101.48116984 162.92913364 109.84375 152.8828125 C119.42230941 139.59696477 121.2770133 123.22649727 121.36157227 107.30078125 C121.37147186 106.13893814 121.38137146 104.97709503 121.39157104 103.78004456 C121.4230239 99.96015422 121.44787913 96.14025147 121.47265625 92.3203125 C121.49323979 89.66373282 121.5141907 87.00715858 121.53562927 84.35058594 C121.58538377 78.08579189 121.63038596 71.82097322 121.67365164 65.55613136 C121.72317215 58.41941416 121.77803495 51.28274109 121.83333123 44.14606667 C121.94688629 29.47502266 122.05307709 14.8039333 122.15625 0.1328125 C132.71625 0.1328125 143.27625 0.1328125 154.15625 0.1328125 C154.15625 64.8128125 154.15625 129.4928125 154.15625 196.1328125 C143.59625 196.1328125 133.03625 196.1328125 122.15625 196.1328125 C121.82625 186.8928125 121.49625 177.6528125 121.15625 168.1328125 C119.0215625 171.071875 119.0215625 171.071875 116.84375 174.0703125 C106.58372332 187.6255426 92.9637788 196.95086807 76.01464844 199.40795898 C55.72075877 201.91382429 35.17655939 200.18196059 18.15625 188.1328125 C17.46660156 187.67261719 16.77695312 187.21242188 16.06640625 186.73828125 C7.45005382 180.27113237 1.39327711 169.17823467 -1.84375 159.1328125 C-2.19050781 158.12605469 -2.53726563 157.11929688 -2.89453125 156.08203125 C-6.87060884 144.00921383 -8.14670866 132.22674364 -8.08666992 119.55566406 C-8.08856827 118.2679007 -8.09046661 116.98013733 -8.09242249 115.65335083 C-8.09721065 112.16651258 -8.08969606 108.67980512 -8.07946944 105.19298267 C-8.07060752 101.53130585 -8.07244782 97.86963214 -8.0728302 94.20794678 C-8.07189842 88.07545817 -8.06327304 81.94301954 -8.04956055 75.81054688 C-8.03375589 68.71606586 -8.02856559 61.62163915 -8.0292961 54.52714181 C-8.02997005 46.95986396 -8.02304725 39.39260705 -8.0138495 31.8253355 C-8.01171627 29.64590819 -8.01100812 27.46648424 -8.01061058 25.28705597 C-8.00942446 21.24375315 -7.99973401 17.20051532 -7.98901367 13.15722656 C-7.98946686 11.94694794 -7.98992004 10.73666931 -7.99038696 9.48971558 C-7.98612198 8.39645966 -7.98185699 7.30320374 -7.97746277 6.17681885 C-7.97578692 5.22121189 -7.97411108 4.26560493 -7.97238445 3.28104019 C-7.69246054 -1.39375943 -3.87547273 0.00339613 0 0 Z " fill="#0072C6" transform="translate(783.84375,243.8671875)"/>
<path d="M0 0 C0.33 18.81 0.66 37.62 1 57 C16.42274686 56.9603921 16.42274686 56.9603921 31.84545898 56.90991211 C33.77067001 56.90699309 35.69588165 56.9044445 37.62109375 56.90234375 C38.63079224 56.89722778 39.64049072 56.89211182 40.68078613 56.88684082 C41.6348938 56.88671997 42.58900146 56.88659912 43.57202148 56.88647461 C44.40475082 56.884254 45.23748016 56.88203339 46.09544373 56.87974548 C48 57 48 57 49 58 C49.08758003 59.99964982 49.10696576 62.0023611 49.09765625 64.00390625 C49.09515869 65.09775635 49.09266113 66.19160645 49.09008789 67.31860352 C49.08098389 68.71908936 49.07187988 70.1195752 49.0625 71.5625 C49.041875 75.996875 49.02125 80.43125 49 85 C32.83 85 16.66 85 0 85 C0.09104181 104.84678626 0.09104181 104.84678626 0.20898438 124.69335938 C0.26311169 132.79938016 0.31466608 140.90533165 0.34643555 149.01147461 C0.37209188 155.55387499 0.4131435 162.09607831 0.46318626 168.63833809 C0.47974695 171.12228131 0.4913279 173.60626336 0.49761391 176.09025383 C-0.46776746 201.8777365 -0.46776746 201.8777365 10.0625 224.25 C18.1347571 229.05900423 28.00513835 228.43178799 37 227 C39.01586144 226.38295292 41.01693133 225.71546007 43 225 C44.98 224.34 46.96 223.68 49 223 C49 232.24 49 241.48 49 251 C39.36526924 255.81736538 30.21427034 256.34531507 19.5625 256.3125 C18.52029297 256.32861328 17.47808594 256.34472656 16.40429688 256.36132812 C2.58716796 256.36989423 -8.7692335 252.76096946 -19.1875 243.5625 C-35.15705367 226.52615429 -33.42479366 201.32630828 -33.29296875 179.75 C-33.28567684 177.03760015 -33.28294985 174.32520065 -33.28010559 171.61279297 C-33.27085344 165.24545918 -33.24633434 158.87828352 -33.21605712 152.51101875 C-33.18229772 145.2508325 -33.16597349 137.99063791 -33.15097082 130.73039246 C-33.11977693 115.8201596 -33.06485269 100.91013161 -33 86 C-43.89 85.67 -54.78 85.34 -66 85 C-66.020625 80.565625 -66.04125 76.13125 -66.0625 71.5625 C-66.071604 70.16201416 -66.08070801 68.76152832 -66.09008789 67.31860352 C-66.09258545 66.22475342 -66.09508301 65.13090332 -66.09765625 64.00390625 C-66.10289307 62.87799072 -66.10812988 61.7520752 -66.11352539 60.59204102 C-66 58 -66 58 -65 57 C-62.62458949 56.91161352 -60.2776642 56.88462477 -57.90234375 56.90234375 C-55.95702759 56.90609009 -55.95702759 56.90609009 -53.97241211 56.90991211 C-51.48013062 56.92356812 -51.48013062 56.92356812 -48.9375 56.9375 C-43.678125 56.958125 -38.41875 56.97875 -33 57 C-33 41.49 -33 25.98 -33 10 C-4.66666667 0 -4.66666667 0 0 0 Z " fill="#0071C5" transform="translate(1032,187)"/>
<path d="M0 0 C10.56 0 21.12 0 32 0 C32 95.37 32 190.74 32 289 C21.44 289 10.88 289 0 289 C0 193.63 0 98.26 0 0 Z " fill="#0071C6" transform="translate(1120,151)"/>
<path d="M0 0 C16.15977126 -0.09356141 32.31945426 -0.16403684 48.47943115 -0.20724869 C55.98328725 -0.2278486 63.48697478 -0.25591967 70.99072266 -0.30175781 C77.53320717 -0.34170473 84.07556956 -0.3674515 90.61817265 -0.37635398 C94.08049202 -0.38155555 97.54246209 -0.39372654 101.00466919 -0.42292023 C104.87557377 -0.45529346 108.74614081 -0.45595437 112.6171875 -0.45410156 C114.32730766 -0.47567322 114.32730766 -0.47567322 116.07197571 -0.49768066 C122.52296209 -0.46430385 127.68012431 0.11573739 133 4 C136.66527577 8.22916435 137.33508148 11.54508591 138 17 C136.69289063 17.8353125 136.69289063 17.8353125 135.359375 18.6875 C125.93016764 24.72400499 116.5208736 30.78858077 107.375 37.25 C98.91619865 43.2136606 90.23673627 48.86131866 81.61376953 54.58349609 C77.71012164 57.17865866 73.8255152 59.79026007 70 62.5 C65.38359756 65.74568602 60.70571095 68.88581406 56 72 C53.04714222 73.96720289 50.09559118 75.9363512 47.14453125 77.90625 C44.97828634 79.34861928 42.80960884 80.7864894 40.63671875 82.21875 C39.56035156 82.9303125 38.48398437 83.641875 37.375 84.375 C36.39273438 85.02210938 35.41046875 85.66921875 34.3984375 86.3359375 C31.95671614 87.92469309 31.95671614 87.92469309 30 90 C23.87252264 89.9810588 19.35902593 86.37556701 14.4375 83.125 C12.76972887 82.0439659 11.10176574 80.96322793 9.43359375 79.8828125 C8.70197021 79.40215332 7.97034668 78.92149414 7.21655273 78.42626953 C5.00373389 76.92025061 5.00373389 76.92025061 2.39694214 75.85670471 C0 74 0 74 -0.60127258 70.82991028 C-0.59016953 69.52197006 -0.57906647 68.21402985 -0.56762695 66.86645508 C-0.56835709 66.14425278 -0.56908722 65.42205048 -0.56983948 64.67796326 C-0.56635619 62.29105482 -0.52746467 59.90609862 -0.48828125 57.51953125 C-0.47895565 55.86473151 -0.47183834 54.20991796 -0.46684265 52.55509949 C-0.44775264 48.19981769 -0.39863544 43.8453698 -0.34332275 39.49041748 C-0.29217294 35.04646079 -0.26933779 30.60236934 -0.24414062 26.15820312 C-0.19051786 17.43841941 -0.10518186 8.71931344 0 0 Z " fill="#0071C6" transform="translate(227,196)"/>
<path d="M0 0 C8.87466787 4.65621588 12.89239883 13.22513537 15.8671875 22.3515625 C19.8785357 38.4177395 18.76324164 55.69643806 10.77734375 70.3515625 C7.7881791 75.02150323 4.16800988 78.53643241 -1.1328125 80.3515625 C-7.5661384 81.13847146 -13.61981148 81.76136809 -19.3984375 78.51953125 C-30.06659649 70.0612052 -33.26990498 59.47291112 -35.1328125 46.3515625 C-36.44470136 32.23989319 -33.42612178 17.9621955 -25.1328125 6.3515625 C-18.24432194 -0.46109146 -9.4997698 -2.8882084 0 0 Z " fill="#0071C6" transform="translate(117.1328125,262.6484375)"/>
<path d="" fill="#0071C6" transform="translate(0,0)"/>
<path d="" fill="#0073C7" transform="translate(0,0)"/>
<path d="" fill="#0073C6" transform="translate(0,0)"/>
<path d="" fill="#0073C7" transform="translate(0,0)"/>
<path d="" fill="#0072C5" transform="translate(0,0)"/>
<path d="" fill="#0071BE" transform="translate(0,0)"/>
<path d="" fill="#0072C6" transform="translate(0,0)"/>
<path d="" fill="#0072C5" transform="translate(0,0)"/>
<path d="" fill="#0072C6" transform="translate(0,0)"/>
<path d="" fill="#0071C6" transform="translate(0,0)"/>
<path d="" fill="#007AC1" transform="translate(0,0)"/>
<path d="" fill="#007EBF" transform="translate(0,0)"/>
<path d="" fill="#0079BB" transform="translate(0,0)"/>
<path d="" fill="#0075C4" transform="translate(0,0)"/>
<path d="" fill="#007BB8" transform="translate(0,0)"/>
<path d="" fill="#0073C6" transform="translate(0,0)"/>
<path d="" fill="#007BC2" transform="translate(0,0)"/>
<path d="" fill="#0072C6" transform="translate(0,0)"/>
<path d="" fill="#0072C6" transform="translate(0,0)"/>
<path d="" fill="#0079C2" transform="translate(0,0)"/>
<path d="" fill="#006FBB" transform="translate(0,0)"/>
<path d="" fill="#0071C6" transform="translate(0,0)"/>
<path d="" fill="#0072C6" transform="translate(0,0)"/>
<path d="" fill="#006FBC" transform="translate(0,0)"/>
<path d="" fill="#0071C6" transform="translate(0,0)"/>
<path d="" fill="#006CC8" transform="translate(0,0)"/>
<path d="" fill="#0071C6" transform="translate(0,0)"/>
</svg>
