<?xml version="1.0" encoding="UTF-8"?>
<svg version="1.1" xmlns="http://www.w3.org/2000/svg" width="894" height="894">
<path d="M0 0 C0 54.78 0 109.56 0 166 C164.34 166.495 164.34 166.495 332 167 C332.04033135 282.89885343 332.04033135 282.89885343 332.04882812 331.17773438 C332.05066153 341.52601045 332.05253581 351.87428651 332.05452599 362.22256256 C332.05479583 363.62628118 332.0550642 365.02999981 332.05533109 366.43371844 C332.05960174 388.83170888 332.06710835 411.22969682 332.07629722 433.62768574 C332.08598694 457.2893526 332.0919936 480.95101734 332.09408849 504.61268622 C332.09546406 518.79585303 332.09981647 532.97901262 332.10791647 547.16217721 C332.11318192 556.87376634 332.11480476 566.58535171 332.11350138 576.29694217 C332.11285768 581.90908446 332.11387905 587.52121411 332.11920547 593.13335419 C332.12403794 598.26216873 332.12433967 603.390962 332.12089889 608.51977748 C332.12047305 610.38384798 332.12177007 612.24791976 332.12488318 614.1119877 C332.12884465 616.62859418 332.12676498 619.14512191 332.12304783 621.66172695 C332.12567484 622.40030753 332.12830186 623.13888811 332.13100848 623.89984992 C332.1141458 628.8858542 332.1141458 628.8858542 331 630 C329.23808113 630.09740479 327.47221162 630.12371447 325.7076025 630.12304783 C323.97511002 630.1260344 323.97511002 630.1260344 322.2076177 630.12908131 C320.92262666 630.12616847 319.63763561 630.12325563 318.31370544 630.12025452 C316.94753327 630.1206901 315.58136117 630.12156476 314.21518952 630.12284368 C310.44351737 630.12509121 306.67187334 630.12106387 302.90020478 630.11606562 C298.83951638 630.11176497 294.77882968 630.11320727 290.71813965 630.1139679 C283.67689574 630.11449338 276.63566107 630.11134406 269.59441948 630.10573006 C259.4138462 630.09761831 249.2332774 630.09500017 239.05270124 630.09374207 C222.53716613 630.09155103 206.02163595 630.08488956 189.50610352 630.07543945 C173.45857772 630.06626666 157.41105327 630.05919664 141.36352539 630.05493164 C139.86573714 630.05452964 139.86573714 630.05452964 138.33769053 630.05411953 C130.52908089 630.05204022 122.72047122 630.05008326 114.91186154 630.04816496 C76.60790317 630.03872371 38.30395713 630.0186072 0 630 C0 683.13 0 736.26 0 791 C-4.57289113 792.14322278 -8.06499225 791.54971978 -12.60546875 790.76171875 C-13.4483696 790.62174973 -14.29127045 790.4817807 -15.15971375 790.33757019 C-17.77473598 789.9005829 -20.38748486 789.4517119 -23 789 C-24.52034388 788.74039024 -26.04068887 788.48078707 -27.56103516 788.22119141 C-31.34144019 787.57117326 -35.11938269 786.9077776 -38.89663696 786.23971558 C-42.30769658 785.63651176 -45.71945078 785.03727629 -49.13114929 784.43769836 C-50.94849219 784.11828609 -52.7658035 783.79869409 -54.58308411 783.47892761 C-65.15728056 781.61871967 -75.73468783 779.77701923 -86.3125 777.9375 C-87.29081787 777.7672934 -88.26913574 777.59708679 -89.27709961 777.42172241 C-102.12444905 775.1870033 -114.9751303 772.97297942 -127.82983398 770.78100586 C-141.5670001 768.43659504 -155.29144391 766.02062643 -169.0163269 763.60549927 C-187.51731255 760.3499457 -206.0190265 757.11887641 -224.5546875 754.06640625 C-236.38228114 752.11784695 -248.19061533 750.0555171 -260 748 C-260.77418274 747.86531311 -261.54836548 747.73062622 -262.3460083 747.59185791 C-268.37686722 746.54247443 -274.40733823 745.49088205 -280.4375 744.4375 C-281.30344788 744.28625671 -282.16939575 744.13501343 -283.06158447 743.97918701 C-292.79892403 742.27721631 -302.53025927 740.55021749 -312.25 738.75 C-319.63338496 737.38416897 -327.03067878 736.21962001 -334.46142578 735.14355469 C-341.5434504 734.10401715 -348.5784712 732.85292024 -355.61328125 731.53320312 C-362.02186545 730.3359405 -368.44545723 729.25142817 -374.87716675 728.18742371 C-384.18250766 726.64468006 -393.47098509 725.00751681 -402.76004028 723.37002563 C-412.35172622 721.67945738 -421.94511253 720.00264258 -431.54910278 718.38319397 C-435.80743012 717.66479277 -440.06467719 716.9400969 -444.32189941 716.21517944 C-446.39696874 715.8637315 -448.47257475 715.51543766 -450.54870605 715.1703186 C-453.44923774 714.68785872 -456.34776273 714.19470128 -459.24609375 713.69921875 C-460.1201738 713.55676727 -460.99425385 713.4143158 -461.89482117 713.26754761 C-463.942663 712.91211674 -465.97431051 712.46537013 -468 712 C-469.16657967 709.66684066 -469.12553369 708.31966968 -469.12649983 705.72073793 C-469.12925958 704.81513638 -469.13201932 703.90953482 -469.13486269 702.9764908 C-469.13280737 701.97318324 -469.13075205 700.96987568 -469.12863445 699.93616486 C-469.13038749 698.87246931 -469.13214053 697.80877377 -469.13394669 696.71284503 C-469.13864224 693.10644296 -469.13613212 689.50008059 -469.13371277 685.89367676 C-469.13557895 683.29887627 -469.13787888 680.70407605 -469.14057809 678.10927629 C-469.14574448 672.44597252 -469.14714716 666.78267731 -469.14612198 661.11937141 C-469.14460124 652.69806111 -469.14874945 644.27676032 -469.1539966 635.85545187 C-469.16368401 619.94282367 -469.16648135 604.03019869 -469.16705366 588.1175679 C-469.16751258 575.83359146 -469.16956768 563.54961629 -469.17275429 551.26564026 C-469.17365178 547.73423847 -469.17454159 544.20283667 -469.17542917 540.67143488 C-469.17565021 539.79361056 -469.17587126 538.91578624 -469.17609901 538.01136118 C-469.18225592 513.30927865 -469.18619929 488.60719656 -469.18575573 463.90511322 C-469.18573236 462.50720827 -469.18573236 462.50720827 -469.18570852 461.08106281 C-469.18562541 456.35723089 -469.18552637 451.63339898 -469.18542381 446.90956706 C-469.18540387 445.97133508 -469.18538392 445.03310311 -469.18536337 444.06643986 C-469.18532294 442.16910577 -469.18528114 440.27177167 -469.18523798 438.37443758 C-469.18462497 408.84255633 -469.19213546 379.31068656 -469.20581055 349.77880859 C-469.22115462 316.62872618 -469.2297778 283.47865131 -469.22884732 250.32856512 C-469.22877269 246.79716333 -469.22872399 243.26576153 -469.22869301 239.73435974 C-469.22868135 238.86478594 -469.2286697 237.99521213 -469.22865769 237.0992876 C-469.22862686 223.07604493 -469.23502588 209.05281219 -469.24362527 195.02957247 C-469.25208169 180.94876972 -469.25310754 166.86798156 -469.24651595 152.78717768 C-469.24280694 144.41144237 -469.24469271 136.03575126 -469.25445829 127.66002058 C-469.26112019 121.4216202 -469.25744185 115.18326755 -469.24958507 108.94486946 C-469.24803477 106.40924392 -469.24992286 103.87361368 -469.25544515 101.33799368 C-469.26241473 97.91319313 -469.25728367 94.48862719 -469.24888897 91.06383514 C-469.25385715 90.06052758 -469.25882533 89.05722002 -469.26394406 88.0235092 C-469.25919325 87.11790765 -469.25444244 86.21230609 -469.24954766 85.27926207 C-469.24963588 84.49512701 -469.2497241 83.71099194 -469.249815 82.90309522 C-469 81 -469 81 -467 79 C-464.91552734 78.45336914 -464.91552734 78.45336914 -462.3359375 78.03515625 C-461.38686523 77.876521 -460.43779297 77.71788574 -459.45996094 77.55444336 C-458.44192383 77.39210205 -457.42388672 77.22976074 -456.375 77.0625 C-454.26287129 76.71183707 -452.15089222 76.36027162 -450.0390625 76.0078125 C-449.00297852 75.83668945 -447.96689453 75.66556641 -446.89941406 75.48925781 C-443.17095569 74.86010401 -439.46232623 74.15577086 -435.75 73.4375 C-430.4071153 72.42391542 -425.06111569 71.51598163 -419.6875 70.6875 C-410.44278448 69.25807652 -401.2202247 67.70335639 -392 66.125 C-391.24192047 65.99525787 -390.48384094 65.86551575 -389.70278931 65.73184204 C-378.78995002 63.86013923 -367.89207086 61.92001349 -357.01953125 59.82470703 C-349.91998226 58.47622271 -342.79711048 57.3166106 -335.66015625 56.1875 C-321.29952104 53.91373784 -306.97119626 51.45768681 -292.64393234 48.98418045 C-290.53028793 48.61944135 -288.41654309 48.25528979 -286.30276489 47.8913269 C-266.59834472 44.49843659 -246.90076382 41.06904745 -227.21484375 37.5703125 C-215.4454778 35.48242984 -203.66621218 33.45229306 -191.8828125 31.4453125 C-191.05802902 31.30482483 -190.23324554 31.16433716 -189.38346863 31.01959229 C-188.53948013 30.87584167 -187.69549164 30.73209106 -186.82592773 30.58398438 C-185.53245926 30.36367554 -185.53245926 30.36367554 -184.21286011 30.13891602 C-182.44001845 29.83696116 -180.66717092 29.53504081 -178.89431763 29.2331543 C-165.23091083 26.9054606 -151.57604727 24.53220318 -137.92526245 22.13171387 C-122.99420447 19.50769907 -108.05100191 16.95821913 -93.10418701 14.42565918 C-79.71235619 12.15587581 -66.33097073 9.83616002 -52.95974731 7.44812012 C-41.17888647 5.34687477 -29.37569493 3.40847892 -17.55273438 1.55981445 C-16.34037109 1.36863037 -15.12800781 1.17744629 -13.87890625 0.98046875 C-12.8122876 0.81442139 -11.74566895 0.64837402 -10.64672852 0.47729492 C-3.79317035 -0.75863407 -3.79317035 -0.75863407 0 0 Z " fill="#006CC5" transform="translate(514,43)"/>
<path d="M0 0 C24.93315677 22.06498289 38.74546583 49.58681586 46.98828125 81.41015625 C47.43880859 83.11365234 47.43880859 83.11365234 47.8984375 84.8515625 C51.62769341 99.82480607 52.33743495 114.86675712 52.23828125 130.22265625 C52.23584412 131.05066742 52.23340698 131.87867859 52.230896 132.73178101 C52.1802658 147.41188358 51.87444595 161.94905917 48.42895508 176.28979492 C47.9696149 178.49997192 47.73396862 180.66152486 47.55078125 182.91015625 C47.15892853 186.82868345 46.19543173 190.22303675 44.859375 193.91796875 C43.86551434 196.76139072 43.06340076 199.63838474 42.23828125 202.53515625 C36.68666789 220.5989285 26.83274406 236.83080899 14.98828125 251.41015625 C14.20517578 252.42529297 14.20517578 252.42529297 13.40625 253.4609375 C6.46859471 262.15799816 -3.31892726 269.09365157 -13.01171875 274.41015625 C-13.67171875 274.41015625 -14.33171875 274.41015625 -15.01171875 274.41015625 C-15.01171875 275.07015625 -15.01171875 275.73015625 -15.01171875 276.41015625 C-24.89196842 280.41714639 -34.54742781 284.20340102 -45.01171875 286.41015625 C-45.60388184 286.57717041 -46.19604492 286.74418457 -46.80615234 286.91625977 C-54.28338435 288.89149375 -61.83570635 288.76109669 -69.51171875 288.72265625 C-70.57886612 288.72091904 -70.57886612 288.72091904 -71.66757202 288.71914673 C-82.39650342 288.68454848 -92.56969598 288.05725782 -103.01171875 285.41015625 C-104.5121875 285.06791016 -104.5121875 285.06791016 -106.04296875 284.71875 C-135.77916789 277.40999319 -162.05849669 256.26033871 -178.01171875 230.41015625 C-202.31707748 188.76504923 -213.58861753 134.33412794 -201.44921875 86.84765625 C-201.20042969 86.00074219 -200.95164063 85.15382813 -200.6953125 84.28125 C-200.11787077 81.85599473 -199.83585844 79.69638505 -199.625 77.2265625 C-199.07643801 71.86092313 -197.50135857 66.99582671 -195.76171875 61.91015625 C-195.47425781 61.02457031 -195.18679687 60.13898438 -194.890625 59.2265625 C-193.1091238 53.92873578 -190.95577269 49.16033881 -188.11401367 44.34545898 C-186.84758645 42.21301415 -186.84758645 42.21301415 -185.57421875 38.97265625 C-175.31000992 15.57026011 -154.81449752 -5.18845436 -132.01171875 -16.58984375 C-130.69171875 -16.58984375 -129.37171875 -16.58984375 -128.01171875 -16.58984375 C-128.01171875 -17.24984375 -128.01171875 -17.90984375 -128.01171875 -18.58984375 C-125.17964125 -19.55202392 -122.34615748 -20.50966455 -119.51171875 -21.46484375 C-118.72023438 -21.73425781 -117.92875 -22.00367188 -117.11328125 -22.28125 C-77.14675045 -35.71262511 -31.94776496 -27.47259166 0 0 Z " fill="#FCFDFE" transform="translate(355.01171875,302.58984375)"/>
<path d="M0 0 C0 100.98 0 201.96 0 306 C-96.69 306 -193.38 306 -293 306 C-293 231.75 -293 157.5 -293 81 C-289.47996286 82.76001857 -287.82121907 83.9362951 -285.14933777 86.6370697 C-284.39668137 87.39275742 -283.64402496 88.14844513 -282.86856079 88.92703247 C-282.05237274 89.75669525 -281.23618469 90.58635803 -280.39526367 91.44116211 C-279.52810226 92.31445663 -278.66094086 93.18775116 -277.76750183 94.08750916 C-275.88394898 95.98537484 -274.00228259 97.88492258 -272.12340355 99.78739738 C-269.1492829 102.79816217 -266.16642945 105.80017131 -263.18196106 108.80067444 C-254.69734042 117.33355144 -246.22451003 125.87807845 -237.76049805 134.43139648 C-233.08404959 139.15703199 -228.40036999 143.8753812 -223.70890409 148.58610922 C-220.74370725 151.56435375 -217.78773331 154.55136514 -214.83836591 157.54528224 C-212.56465658 159.84807187 -210.27776694 162.13771241 -207.99291992 164.42944336 C-207.18280457 165.25708191 -206.37268921 166.08472046 -205.5380249 166.93743896 C-200.06526244 172.39144632 -195.16157624 176.424024 -187.0625 176.4375 C-186.29035156 176.45683594 -185.51820313 176.47617187 -184.72265625 176.49609375 C-177.06450219 175.10070556 -171.81280768 170.38720947 -166.52163696 164.98919678 C-165.81384169 164.28340807 -165.10604642 163.57761937 -164.3768028 162.85044312 C-162.01975033 160.49528806 -159.67726035 158.12617475 -157.33447266 155.75683594 C-155.64285364 154.06081233 -153.95033558 152.36568502 -152.25698853 150.67138672 C-148.14588857 146.55366672 -144.04396958 142.42696402 -139.94579037 138.29638788 C-135.17319239 133.48728006 -130.38836599 128.69041666 -125.60253565 123.89448264 C-117.06757541 115.34103729 -108.54085352 106.77943057 -100.02001953 98.21191406 C-99.51068242 97.69979033 -99.00134532 97.18766659 -98.47657375 96.66002396 C-97.96657568 96.14723482 -97.4565776 95.63444569 -96.93112504 95.10611749 C-89.68877923 87.82417555 -82.44445364 80.54421078 -75.19775391 73.26660156 C-74.68722326 72.75388922 -74.17669262 72.24117687 -73.65069135 71.71292779 C-65.14933756 63.17557468 -56.64394922 54.64224836 -48.1364826 46.11098695 C-42.42144927 40.37939686 -36.71238515 34.64193811 -31.00759435 28.90015364 C-27.46837644 25.3397264 -23.92516242 21.78329626 -20.3809166 18.22787476 C-18.73194065 16.57192877 -17.08471199 14.91424084 -15.4393158 13.25473785 C-13.20288964 10.99955295 -10.96049494 8.75047975 -8.71646118 6.50286865 C-8.05850072 5.83635402 -7.40054025 5.1698394 -6.72264159 4.48312736 C-2.22812903 0 -2.22812903 0 0 0 Z " fill="#FDFEFE" transform="translate(805,320)"/>
<path d="M0 0 C97.02 0 194.04 0 294 0 C294 4.62 294 9.24 294 14 C292.35 14.99 290.7 15.98 289 17 C287.19147734 18.51828466 287.19147734 18.51828466 285.54239941 20.21150494 C284.57649955 21.17143165 284.57649955 21.17143165 283.59108657 22.15075082 C282.89749818 22.85016488 282.2039098 23.54957895 281.48930359 24.27018738 C280.36808561 25.38884208 280.36808561 25.38884208 279.22421676 26.53009588 C276.71981368 29.03120372 274.22262764 31.53939468 271.7253418 34.04760742 C269.93195321 35.84156011 268.13812419 37.6350726 266.34388733 39.42817688 C262.48150644 43.29010227 258.62221203 47.15507099 254.76569176 51.02284813 C249.18983286 56.61497188 243.60844928 62.20155463 238.02570865 67.78680722 C228.9678926 76.84899883 219.91455044 85.91564631 210.86401367 94.98510742 C202.07306513 103.79441838 193.2800152 112.60162305 184.48413086 121.40600586 C183.94181128 121.94885088 183.3994917 122.49169591 182.8407382 123.05099078 C180.12002484 125.77431425 177.39927011 128.49759639 174.67849481 131.22085798 C152.11257953 153.80750141 129.55392212 176.40138056 107 199 C101.6811669 196.43695171 97.56788744 192.62368506 93.09082031 188.80957031 C92.08561844 187.95565201 91.08041656 187.1017337 90.04475403 186.22193909 C80.62298861 178.17531474 71.46869171 169.84012748 62.38287735 161.41748428 C55.79092684 155.3189786 49.1465632 149.33936247 42.17254829 143.6773777 C23.74096491 128.5196457 14.47802009 114.45917005 0 94 C0 62.98 0 31.96 0 0 Z " fill="#FDFDFE" transform="translate(512,256)"/>
<path d="M0 0 C0.97582031 0.04640625 1.95164062 0.0928125 2.95703125 0.140625 C15.46488551 1.71707098 27.2790941 12.74223132 35 22 C37.99901956 26.13807622 40.53500986 30.52780361 43 35 C43.59554687 36.00933594 43.59554687 36.00933594 44.203125 37.0390625 C47.96848514 43.82268752 49.82331051 51.59491368 52 59 C52.34546875 60.14210938 52.6909375 61.28421875 53.046875 62.4609375 C60.2361072 89.15538166 59.65831623 120.98106019 52.640625 147.5703125 C52.07471107 149.71664461 51.57142677 151.86401281 51.09375 154.03125 C46.39097447 173.36488274 34.73666441 190.58878158 17.765625 200.98046875 C5.81421431 207.65640082 -6.95891179 208.00202383 -20.0625 204.375 C-39.48287443 197.31975005 -51.68544494 182.07520675 -60.37109375 163.91796875 C-77.01866138 125.4522245 -76.43831831 77.54491438 -61.171875 38.90234375 C-60.78515625 37.94457031 -60.3984375 36.98679687 -60 36 C-59.34 36 -58.68 36 -58 36 C-57.87625 35.46632813 -57.7525 34.93265625 -57.625 34.3828125 C-55.65235153 27.25661991 -51.87749366 22.45879644 -47 17 C-46.44183594 16.35933594 -45.88367188 15.71867187 -45.30859375 15.05859375 C-32.3814736 1.13468361 -17.97675127 -0.87954564 0 0 Z " fill="#016DC5" transform="translate(279,330)"/>
<path d="M0 0 C0.66 0.33 1.32 0.66 2 1 C-3.28 6.28 -8.56 11.56 -14 17 C-14.66 16.67 -15.32 16.34 -16 16 C-11.03093773 10.1719243 -5.90436923 4.8836671 0 0 Z " fill="#D1E4F4" transform="translate(203,299)"/>
</svg>
